<svg width="20" height="20" viewBox="0 0 20 20" fill="none" xmlns="http://www.w3.org/2000/svg">
<path fill-rule="evenodd" clip-rule="evenodd" d="M4.92085 4.92085C5.03025 4.81146 5.17862 4.75 5.33333 4.75H8C8.41421 4.75 8.75 4.41421 8.75 4C8.75 3.58579 8.41421 3.25 8 3.25H5.33333C4.7808 3.25 4.2509 3.46949 3.86019 3.86019C3.46949 4.2509 3.25 4.7808 3.25 5.33333V14.6667C3.25 15.2192 3.46949 15.7491 3.86019 16.1398C4.25089 16.5305 4.7808 16.75 5.33333 16.75H8C8.41421 16.75 8.75 16.4142 8.75 16C8.75 15.5858 8.41421 15.25 8 15.25H5.33333C5.17862 15.25 5.03025 15.1885 4.92085 15.0791C4.81146 14.9697 4.75 14.8214 4.75 14.6667V5.33333C4.75 5.17862 4.81146 5.03025 4.92085 4.92085ZM12.1362 6.1363C12.4291 5.8434 12.9039 5.8434 13.1968 6.1363L16.5222 9.46163C16.6627 9.59794 16.75 9.78877 16.75 10C16.75 10.2124 16.6617 10.4042 16.5198 10.5407L13.1968 13.8636C12.9039 14.1565 12.4291 14.1565 12.1362 13.8636C11.8433 13.5707 11.8433 13.0959 12.1362 12.803L14.1891 10.75H8C7.58579 10.75 7.25 10.4142 7.25 10C7.25 9.58579 7.58579 9.25 8 9.25H14.1892L12.1362 7.19696C11.8433 6.90406 11.8433 6.42919 12.1362 6.1363Z" fill="black"/>
</svg>
