<svg width="71" height="18" viewBox="0 0 71 18" fill="none" xmlns="http://www.w3.org/2000/svg">
<path d="M18.8198 6.68572V11.3143L12.8975 10.9286L16.3851 15.5571L12.3053 18L9.40991 12.6643L6.51455 18L2.43473 15.5571L5.98813 10.9286L0 11.3143V6.68572L5.98813 7.07143L2.43473 2.44286L6.51455 0L9.40991 5.33571L12.3053 0L16.3851 2.44286L12.8975 7.07143L18.8198 6.68572Z" fill="black"/>
<path d="M44.9099 6.68572V11.3143L38.9876 10.9286L42.4752 15.5571L38.3954 18L35.5 12.6643L32.6046 18L28.5248 15.5571L32.0782 10.9286L26.0901 11.3143V6.68572L32.0782 7.07143L28.5248 2.44286L32.6046 0L35.5 5.33571L38.3954 0L42.4752 2.44286L38.9876 7.07143L44.9099 6.68572Z" fill="black"/>
<path d="M71 6.68572V11.3143L65.0777 10.9286L68.5653 15.5571L64.4854 18L61.5901 12.6643L58.6947 18L54.6149 15.5571L58.1683 10.9286L52.1802 11.3143V6.68572L58.1683 7.07143L54.6149 2.44286L58.6947 0L61.5901 5.33571L64.4854 0L68.5653 2.44286L65.0777 7.07143L71 6.68572Z" fill="black"/>
</svg>
