<svg width="20" height="18" viewBox="0 0 20 18" fill="none" xmlns="http://www.w3.org/2000/svg">
<path d="M6.2896 17.1255C13.8368 17.1255 17.9648 10.8727 17.9648 5.45032C17.9648 5.27272 17.9648 5.09592 17.9528 4.91992C18.7559 4.33905 19.4491 3.61983 20 2.79592C19.2512 3.12792 18.4567 3.34555 17.6432 3.44152C18.4998 2.92876 19.141 2.12217 19.4472 1.17192C18.6417 1.64993 17.7605 1.98678 16.8416 2.16792C16.2229 1.51007 15.4047 1.07446 14.5135 0.928492C13.6223 0.782528 12.7078 0.93435 11.9116 1.36047C11.1154 1.78658 10.4819 2.46323 10.109 3.28571C9.73605 4.10819 9.64462 5.03064 9.8488 5.91032C8.21741 5.82849 6.62146 5.40451 5.16455 4.66593C3.70763 3.92734 2.4223 2.89064 1.392 1.62312C0.867274 2.52645 0.70656 3.59581 0.942583 4.61347C1.17861 5.63114 1.79362 6.52058 2.6624 7.10072C2.00936 7.08159 1.37054 6.90542 0.8 6.58712V6.63912C0.800259 7.5865 1.12821 8.50462 1.72823 9.23776C2.32824 9.9709 3.16338 10.4739 4.092 10.6615C3.4879 10.8263 2.85406 10.8504 2.2392 10.7319C2.50151 11.5472 3.01202 12.2601 3.69937 12.771C4.38671 13.282 5.21652 13.5653 6.0728 13.5815C5.22203 14.2503 4.24776 14.7447 3.20573 15.0365C2.16369 15.3284 1.07435 15.4119 0 15.2823C1.87653 16.4865 4.05994 17.1253 6.2896 17.1223" fill="black"/>
</svg>
