<svg width="34" height="44" viewBox="0 0 34 44" fill="none" xmlns="http://www.w3.org/2000/svg">
<path d="M3.91854 42.1547C4.18746 41.8855 4.32192 41.5395 4.32192 41.1166V4.32503C4.32192 4.13281 4.39875 3.97903 4.55242 3.8637C4.70609 3.70992 4.87897 3.63303 5.07105 3.63303C5.26314 3.63303 5.41681 3.70992 5.53206 3.8637C5.68573 3.97903 5.76256 4.13281 5.76256 4.32503V41.1166C5.76256 41.924 5.47443 42.5968 4.89818 43.135C4.36034 43.7117 3.68804 44 2.88128 44C2.07452 44 1.40222 43.7117 0.864384 43.135C0.288128 42.5968 0 41.924 0 41.1166V31.7746C0 31.5823 0.0768341 31.4093 0.230502 31.2556C0.345754 31.1018 0.499422 31.0249 0.691507 31.0249C1.19093 31.0249 1.44064 31.2748 1.44064 31.7746V41.1166C1.44064 41.5395 1.5751 41.8855 1.84402 42.1547C2.11294 42.4238 2.45869 42.5583 2.88128 42.5583C3.30387 42.5583 3.64962 42.4238 3.91854 42.1547ZM4.32192 0.749674C4.32192 0.249892 4.57163 0 5.07105 0C5.26314 0 5.41681 0.0768897 5.53206 0.230669C5.68573 0.384447 5.76256 0.557449 5.76256 0.749674C5.76256 0.941897 5.68573 1.1149 5.53206 1.26868C5.41681 1.38401 5.26314 1.44168 5.07105 1.44168C4.57163 1.44168 4.32192 1.21101 4.32192 0.749674Z" fill="black"/>
<path d="M10.916 22.3748C11.3386 22.3748 11.6843 22.2403 11.9533 21.9712C12.2222 21.7021 12.3566 21.3561 12.3566 20.9332V4.32503C12.3566 4.13281 12.4335 3.97903 12.5871 3.8637C12.7408 3.70992 12.9137 3.63303 13.1058 3.63303C13.2979 3.63303 13.4515 3.70992 13.5668 3.8637C13.7204 3.97903 13.7973 4.13281 13.7973 4.32503V20.9332C13.7973 21.7405 13.5091 22.4325 12.9329 23.0092C12.3951 23.5474 11.7228 23.8165 10.916 23.8165C10.1092 23.8165 9.41773 23.5474 8.84148 23.0092C8.30364 22.4325 8.03472 21.7405 8.03472 20.9332V4.32503C8.03472 4.13281 8.11155 3.97903 8.26522 3.8637C8.41889 3.70992 8.59177 3.63303 8.78385 3.63303C8.97594 3.63303 9.12961 3.70992 9.24486 3.8637C9.39852 3.97903 9.47536 4.13281 9.47536 4.32503V20.9332C9.47536 21.3561 9.60982 21.7021 9.87874 21.9712C10.1477 22.2403 10.4934 22.3748 10.916 22.3748Z" fill="black"/>
<path d="M18.8508 5.0747C18.4282 5.0747 18.0824 5.20926 17.8135 5.47837C17.5446 5.74749 17.4101 6.09349 17.4101 6.51638V23.0668C17.4101 23.2591 17.3333 23.4321 17.1796 23.5858C17.0644 23.7396 16.9107 23.8165 16.7186 23.8165C16.2192 23.8165 15.9695 23.5666 15.9695 23.0668V6.51638C15.9695 5.70904 16.2384 5.03626 16.7763 4.49803C17.3525 3.92136 18.044 3.63303 18.8508 3.63303C19.6575 3.63303 20.3875 3.95981 21.0405 4.61337C21.6168 3.95981 22.3275 3.63303 23.1727 3.63303C23.9795 3.63303 24.6517 3.92136 25.1896 4.49803C25.7658 5.03626 26.054 5.70904 26.054 6.51638V23.0668C26.054 23.2591 25.9771 23.4321 25.8235 23.5858C25.7082 23.7396 25.5546 23.8165 25.3625 23.8165C24.863 23.8165 24.6133 23.5666 24.6133 23.0668V6.51638C24.6133 6.09349 24.4789 5.74749 24.21 5.47837C23.941 5.20926 23.5953 5.0747 23.1727 5.0747C22.7501 5.0747 22.4044 5.20926 22.1354 5.47837C21.8665 5.74749 21.7321 6.09349 21.7321 6.51638V23.0668C21.7321 23.2591 21.6552 23.4321 21.5015 23.5858C21.3863 23.7396 21.2326 23.8165 21.0405 23.8165C20.5411 23.8165 20.2914 23.5666 20.2914 23.0668V6.51638C20.2914 6.09349 20.157 5.74749 19.888 5.47837C19.6191 5.20926 19.2734 5.0747 18.8508 5.0747Z" fill="black"/>
<path d="M29.5052 31.2556C29.6205 31.4093 29.6781 31.5823 29.6781 31.7746V41.1166C29.6781 41.5395 29.8125 41.8855 30.0815 42.1547C30.3504 42.4238 30.6961 42.5583 31.1187 42.5583C31.5413 42.5583 31.8871 42.4238 32.156 42.1547C32.4249 41.8855 32.5594 41.5395 32.5594 41.1166V23.4128C32.0984 23.682 31.6181 23.8165 31.1187 23.8165C30.312 23.8165 29.6205 23.5474 29.0442 23.0092C28.5064 22.4325 28.2374 21.7405 28.2374 20.9332V4.32503C28.2374 4.13281 28.3143 3.97903 28.4679 3.8637C28.6216 3.70992 28.7945 3.63303 28.9866 3.63303C29.1787 3.63303 29.3323 3.70992 29.4476 3.8637C29.6012 3.97903 29.6781 4.13281 29.6781 4.32503V20.9332C29.6781 21.3561 29.8125 21.7021 30.0815 21.9712C30.3504 22.2403 30.6961 22.3748 31.1187 22.3748C31.5413 22.3748 31.8871 22.2403 32.156 21.9712C32.4249 21.7021 32.5594 21.3561 32.5594 20.9332V4.32503C32.5594 4.13281 32.6362 3.97903 32.7899 3.8637C32.9435 3.70992 33.1164 3.63303 33.3085 3.63303C33.5006 3.63303 33.6542 3.70992 33.7695 3.8637C33.9232 3.97903 34 4.13281 34 4.32503V41.1166C34 41.924 33.7119 42.5968 33.1356 43.135C32.5978 43.7117 31.9255 44 31.1187 44C30.312 44 29.6205 43.7117 29.0442 43.135C28.5064 42.5968 28.2374 41.924 28.2374 41.1166V31.7746C28.2374 31.2748 28.4872 31.0249 28.9866 31.0249C29.1787 31.0249 29.3515 31.1018 29.5052 31.2556Z" fill="black"/>
</svg>
